# xmcd
#
# Track frame offsets: 
#        150
#        12523
#        24263
#        36073
#        52830
#        63878
#        78443
#        91993
#        105895
#        124273
#        135860
#
# Disc length: 1985 seconds
#
# Revision: 2
# Processed by: cddbd v1.5.2PL0 Copyright (c) Steve Scherf et al.
# Submitted via: ExactAudioCopy v0.99pb3
#
DISCID=7507bf0b
DTITLE=Lightnin' Slim - Hoodoo Blues
DYEAR=1999
DGENRE=Blues
TTITLE0=Rooster Blues
TTITLE1=Lightnin's Bad Luck
TTITLE2=G. I. Blues
TTITLE3=Crazy About You Baby
TTITLE4=My Babe
TTITLE5=Things I Used to Do
TTITLE6=That's All Right
TTITLE7=Good Mornin' Heartaches
TTITLE8=Hoodoo Blues
TTITLE9=Bad Luck Blues
TTITLE10=Oh Baby
EXTD=
EXTT0=
EXTT1=
EXTT2=
EXTT3=
EXTT4=
EXTT5=
EXTT6=
EXTT7=
EXTT8=
EXTT9=
EXTT10=
PLAYORDER=
